<svg xmlns="http://www.w3.org/2000/svg"  viewBox="0 0 180.587 145.011"> <g> <path fill="#c7dcff" stroke="#221f20" d="M2.037 0s9.074-.548 20.832-.548S49.068 0 49.068 0a2.037 2.037 0 0 1 2.037 2.037v13.055a2.037 2.037 0 0 1-2.037 2.037s-14.441.821-26.2.821-20.832-.821-20.832-.821A2.037 2.037 0 0 1 0 15.092a58.131 58.131 0 0 1-.418-6.5A59.654 59.654 0 0 1 0 2.037 2.037 2.037 0 0 1 2.037 0z" transform="translate(-1559.708 -389.857) translate(1560.626 450.049)"/> <path fill="#ffabaf" stroke="#221f20" stroke-miterlimit="10" d="M1573.127 406.2a88.979 88.979 0 0 0 0 32.062 2.786 2.786 0 0 0 1.717 2.574 2.749 2.749 0 0 0 3.036-.6l16.031-16.031a2.762 2.762 0 0 0 .019-3.92l-16.073-16.073a2.775 2.775 0 0 0-4.73 1.988z" transform="translate(-1559.708 -389.857) translate(30.822 36.388)"/> <path fill="#fff" stroke="#2d2d2d" stroke-miterlimit="10" d="M1644.515 456.7q-1.165-1.211-2.43-2.309a37.762 37.762 0 0 0-15.981-8.218 2.556 2.556 0 0 1-2.006-2.472v-.523a2.616 2.616 0 0 1 1.263-2.191 25.2 25.2 0 0 0 10.189-21.406c0-13.127-8.037-23.768-17.957-23.768s-17.957 10.641-17.957 23.768a25.781 25.781 0 0 0 9.17 20.7 2.609 2.609 0 0 1 1.1 2.077v1.406a2.556 2.556 0 0 1-1.982 2.468 37.812 37.812 0 0 0-19.522 11.945c-5 5.034-10.368 10.451-9.477 16.334 1.619 10.849 23.5 16.892 39.8 16.463 13.59-.356 34.572-5.5 36.35-16.463 1.12-6.948-5.912-13.498-10.56-17.811z" transform="translate(-1559.708 -389.857) translate(50.78 15.213)"/> <path fill="none" stroke="#2d2d2d" stroke-miterlimit="10" d="M1576.5 412.533a72 72 0 1 1-1.786 97.729" transform="translate(-1559.708 -389.857) translate(39.312)"/> </g></svg>